<svg class="svg-icon" style="width: 1em; height: 1em;vertical-align: middle;fill: currentColor;overflow: hidden;" viewBox="0 0 1024 1024" version="1.1" xmlns="http://www.w3.org/2000/svg"><path d="M940.8 195.2C928 96 841.6 16 736 16H288C182.4 16 96 96 83.2 195.2 35.2 211.2 0 252.8 0 304v512C0 876.8 51.2 928 112 928h12.8C163.2 976 224 1008 288 1008h448c64 0 124.8-32 163.2-80h12.8c60.8 0 112-51.2 112-112v-512c0-51.2-35.2-92.8-83.2-108.8zM288 48h448c86.4 0 156.8 60.8 172.8 144-60.8 3.2-108.8 51.2-108.8 112v512H224v-512C224 243.2 176 195.2 115.2 192 131.2 108.8 201.6 48 288 48z m-256 768v-512C32 259.2 67.2 224 112 224S192 259.2 192 304v512C192 860.8 156.8 896 112 896S32 860.8 32 816z m704 160H288c-51.2 0-96-22.4-131.2-57.6 28.8-12.8 51.2-38.4 60.8-70.4h585.6c9.6 32 32 57.6 60.8 70.4-32 35.2-76.8 57.6-128 57.6z m256-160c0 44.8-35.2 80-80 80S832 860.8 832 816v-512C832 259.2 867.2 224 912 224S992 259.2 992 304v512z"  /></svg>